<?xml version="1.0" encoding="UTF-8" standalone="no"?>
<svg xmlns="http://www.w3.org/2000/svg"
     width="1024"
     height="1024"
     viewBox="0 0 1024 1024"
     version="1.1">
  <path d="M 368 727 L 368 736 L 374 742 L 388 745 L 426 747 L 625 746 L 646 744 L 655 740 L 658 735 L 658 727 L 653 721 L 635 718 L 389 718 L 375 720 Z" fill="#000000" fill-rule="evenodd"/><path d="M 542 552 L 543 563 L 549 569 L 559 572 L 594 572 L 600 584 L 607 592 L 621 598 L 633 597 L 641 593 L 650 583 L 653 574 L 655 572 L 668 568 L 674 560 L 674 552 L 672 548 L 663 543 L 553 543 L 547 545 Z" fill="#000000" fill-rule="evenodd"/><path d="M 354 553 L 354 559 L 359 568 L 371 572 L 406 572 L 412 584 L 418 591 L 426 596 L 434 598 L 444 597 L 454 592 L 461 584 L 465 573 L 479 568 L 483 565 L 485 561 L 485 553 L 480 546 L 472 543 L 366 543 L 358 546 Z" fill="#000000" fill-rule="evenodd"/><path d="M 313 113 L 288 125 L 272 139 L 269 145 L 269 158 L 272 169 L 286 193 L 298 208 L 316 226 L 331 237 L 344 244 L 363 251 L 382 255 L 420 257 L 447 254 L 465 250 L 472 247 L 473 250 L 468 270 L 467 289 L 464 292 L 444 301 L 433 309 L 415 327 L 403 345 L 394 367 L 386 412 L 380 429 L 370 445 L 349 467 L 314 496 L 293 517 L 276 538 L 256 572 L 243 608 L 239 625 L 236 648 L 237 695 L 241 718 L 250 748 L 267 784 L 280 804 L 298 826 L 317 845 L 342 865 L 367 881 L 398 896 L 443 910 L 490 917 L 535 917 L 554 915 L 581 910 L 615 900 L 659 880 L 680 867 L 708 845 L 739 812 L 754 791 L 766 770 L 775 750 L 783 726 L 787 708 L 790 683 L 790 652 L 788 634 L 782 606 L 775 585 L 767 567 L 756 548 L 736 521 L 708 493 L 674 465 L 664 455 L 653 440 L 647 428 L 642 413 L 637 381 L 631 360 L 620 338 L 607 321 L 590 306 L 565 292 L 535 284 L 498 282 L 500 254 L 504 241 L 512 226 L 529 209 L 541 204 L 554 203 L 563 199 L 568 192 L 567 183 L 564 180 L 558 178 L 537 178 L 526 180 L 506 188 L 482 156 L 459 134 L 434 118 L 411 109 L 385 104 L 356 104 L 335 107 Z M 503 310 L 535 312 L 556 319 L 567 325 L 580 335 L 593 350 L 599 360 L 606 378 L 615 426 L 624 448 L 633 463 L 642 474 L 658 490 L 683 511 L 708 536 L 731 567 L 743 590 L 753 618 L 759 656 L 758 692 L 753 717 L 746 739 L 730 771 L 714 794 L 702 808 L 680 829 L 660 844 L 622 865 L 583 879 L 561 884 L 531 888 L 493 888 L 474 886 L 430 876 L 389 859 L 370 848 L 347 831 L 317 801 L 293 766 L 282 743 L 275 722 L 270 698 L 268 676 L 269 644 L 275 613 L 285 585 L 297 563 L 310 545 L 324 529 L 346 508 L 367 491 L 389 469 L 396 460 L 409 437 L 415 420 L 421 384 L 427 366 L 437 348 L 451 332 L 467 321 L 469 323 L 474 353 L 479 364 L 485 368 L 494 368 L 499 364 L 501 354 L 498 312 Z M 299 153 L 308 145 L 322 139 L 340 134 L 362 131 L 380 131 L 404 135 L 424 143 L 447 159 L 468 183 L 476 195 L 481 206 L 473 213 L 463 218 L 432 226 L 395 227 L 372 223 L 348 213 L 334 203 L 320 189 L 309 175 L 300 161 Z" fill="#000000" fill-rule="evenodd"/>
</svg>
